<svg xmlns="http://www.w3.org/2000/svg" xmlns:xlink="http://www.w3.org/1999/xlink" xmlns:svgjs="http://svgjs.com/svgjs" width="512" height="512" x="0" y="0" viewBox="0 0 60 60" style="enable-background:new 0 0 512 512" xml:space="preserve" class=""><g><g fill="#000" fill-rule="nonzero"><path d="M35.243 33.13a1 1 0 1 0 .658 1.889 18.005 18.005 0 1 0-11.792 0 1 1 0 0 0 .657-1.89A15.96 15.96 0 0 1 20 30.479V29.39a7.526 7.526 0 0 1 4.829-7.036 8.945 8.945 0 0 0 10.342 0A7.526 7.526 0 0 1 40 29.39v1.093a15.961 15.961 0 0 1-4.757 2.647zM23 15a7 7 0 1 1 7 7 7.008 7.008 0 0 1-7-7zm13.8 5.873a9 9 0 1 0-13.608 0 9.527 9.527 0 0 0-5.16 7.727c-5.7-6.425-5.312-16.204.881-22.156 6.193-5.951 15.98-5.951 22.174 0 6.193 5.952 6.582 15.731.881 22.156a9.523 9.523 0 0 0-5.168-7.727z" fill="#6578c1
" data-original="#6578c1
"></path><path d="M21.4 59.611a1.985 1.985 0 0 0 2.1.161l6.507-3.381 6.506 3.382a2 2 0 0 0 2.893-2.117l-1.236-7.132 5.23-5.041a2 2 0 0 0-1.1-3.419l-7.26-1.043-3.24-6.513a1.987 1.987 0 0 0-1.793-1.108 1.989 1.989 0 0 0-1.789 1.105l-3.258 6.516-7.244 1.042a2 2 0 0 0-1.1 3.42l5.232 5.041-1.237 7.132a1.99 1.99 0 0 0 .789 1.955zM18 44.043l7.762-1.117a1 1 0 0 0 .752-.542l3.492-6.984 3.477 6.982a1 1 0 0 0 .753.544l7.778 1.117-5.614 5.409a1 1 0 0 0-.291.891L37.436 58l-6.967-3.621a1 1 0 0 0-.922 0L22.579 58l1.327-7.655a1 1 0 0 0-.291-.891z" fill="#6578c1
" data-original="#6578c1
"></path><path d="m4.7 44.222-.977 5.649a1.81 1.81 0 0 0 2.616 1.923l5.161-2.686 5.158 2.692a1 1 0 1 0 .924-1.774l-5.62-2.93a1 1 0 0 0-.924 0l-5.277 2.749 1-5.8a1 1 0 0 0-.291-.891l-4.247-4.1L8.1 38.21a1 1 0 0 0 .752-.543l2.648-5.294 2.638 5.293a1 1 0 0 0 .754.544l6.279.9a1 1 0 0 0 .283-1.98l-5.76-.825-2.577-5.172a1.8 1.8 0 0 0-1.621-1h-.006c-.68-.001-1.3.384-1.6.994L7.3 36.305l-5.743.824a1.8 1.8 0 0 0-1 3.091zM59.91 38.356a1.782 1.782 0 0 0-1.46-1.226l-5.75-.825-2.584-5.177c-.299-.611-.92-1-1.6-1h-.006a1.8 1.8 0 0 0-1.622 1l-2.576 5.171-5.761.825a1 1 0 0 0 .283 1.98l6.28-.9a1 1 0 0 0 .754-.544l2.632-5.287 2.643 5.294a1 1 0 0 0 .752.543l5.874.843-4.247 4.1a1 1 0 0 0-.291.891l1.005 5.8-5.277-2.752a1 1 0 0 0-.924 0l-5.62 2.93a1 1 0 1 0 .924 1.774l5.161-2.688 5.16 2.692a1.808 1.808 0 0 0 2.614-1.919l-.974-5.659 4.146-4a1.8 1.8 0 0 0 .464-1.866zM24.5 47.139c.048 0 .096-.004.144-.011l3.761-.541a1 1 0 0 0 .752-.542l1.74-3.479a1.002 1.002 0 1 0-1.79-.9l-1.5 3.011-3.245.467a1 1 0 0 0 .142 1.99z" fill="#6578c1
" data-original="#6578c1
"></path></g></g></svg>